<mxfile host="app.diagrams.net" modified="2024-06-21T02:21:13.229Z" agent="Mozilla/5.0 (Windows NT 10.0; Win64; x64) AppleWebKit/537.36 (KHTML, like Gecko) Chrome/123.0.0.0 Safari/537.36 OPR/109.0.0.0" version="24.5.5" etag="wMIAlxRJbU9T1j0ehmw4" type="github">
  <diagram name="Page-1" id="JktAx-hP3Ekq6u097ZFe">
    <mxGraphModel>
      <root>
        <mxCell id="0" />
        <mxCell id="1" parent="0" />
      </root>
    </mxGraphModel>
  </diagram>
</mxfile>
